<mxfile host="app.diagrams.net" modified="2023-04-06T05:52:34.463Z" agent="Mozilla/5.0 (Windows NT 10.0; Win64; x64) AppleWebKit/537.36 (KHTML, like Gecko) Chrome/101.0.0.0 Safari/537.36" etag="4-5_0vLdTJE0WmbIL7zq" version="21.1.4" type="github">
  <diagram name="第 1 页" id="E5NydGCGkM6lE4efgYFy">
    <mxGraphModel dx="1354" dy="635" grid="1" gridSize="10" guides="1" tooltips="1" connect="1" arrows="1" fold="1" page="1" pageScale="1" pageWidth="827" pageHeight="1169" math="0" shadow="0">
      <root>
        <mxCell id="0" />
        <mxCell id="1" parent="0" />
        <mxCell id="pTcl19t6WtHDqJ_NbqL0-4" value="" style="edgeStyle=orthogonalEdgeStyle;rounded=0;orthogonalLoop=1;jettySize=auto;html=1;" edge="1" parent="1" source="pTcl19t6WtHDqJ_NbqL0-1" target="pTcl19t6WtHDqJ_NbqL0-2">
          <mxGeometry relative="1" as="geometry" />
        </mxCell>
        <mxCell id="pTcl19t6WtHDqJ_NbqL0-1" value="开始" style="strokeWidth=2;html=1;shape=mxgraph.flowchart.start_1;whiteSpace=wrap;" vertex="1" parent="1">
          <mxGeometry x="50" y="30" width="100" height="60" as="geometry" />
        </mxCell>
        <mxCell id="pTcl19t6WtHDqJ_NbqL0-5" value="" style="edgeStyle=orthogonalEdgeStyle;rounded=0;orthogonalLoop=1;jettySize=auto;html=1;" edge="1" parent="1" source="pTcl19t6WtHDqJ_NbqL0-2" target="pTcl19t6WtHDqJ_NbqL0-3">
          <mxGeometry relative="1" as="geometry" />
        </mxCell>
        <mxCell id="pTcl19t6WtHDqJ_NbqL0-2" value="调用工单服务审批" style="rounded=1;whiteSpace=wrap;html=1;absoluteArcSize=1;arcSize=14;strokeWidth=2;" vertex="1" parent="1">
          <mxGeometry x="230" y="30" width="100" height="60" as="geometry" />
        </mxCell>
        <mxCell id="pTcl19t6WtHDqJ_NbqL0-7" value="" style="edgeStyle=orthogonalEdgeStyle;rounded=0;orthogonalLoop=1;jettySize=auto;html=1;" edge="1" parent="1" source="pTcl19t6WtHDqJ_NbqL0-3" target="pTcl19t6WtHDqJ_NbqL0-6">
          <mxGeometry relative="1" as="geometry" />
        </mxCell>
        <mxCell id="pTcl19t6WtHDqJ_NbqL0-3" value="修改申请单状态为审批通过或审批拒绝" style="rounded=1;whiteSpace=wrap;html=1;absoluteArcSize=1;arcSize=14;strokeWidth=2;" vertex="1" parent="1">
          <mxGeometry x="390" y="35" width="120" height="50" as="geometry" />
        </mxCell>
        <mxCell id="pTcl19t6WtHDqJ_NbqL0-10" style="edgeStyle=orthogonalEdgeStyle;rounded=0;orthogonalLoop=1;jettySize=auto;html=1;entryX=1;entryY=0.5;entryDx=0;entryDy=0;entryPerimeter=0;" edge="1" parent="1" source="pTcl19t6WtHDqJ_NbqL0-6" target="pTcl19t6WtHDqJ_NbqL0-9">
          <mxGeometry relative="1" as="geometry">
            <Array as="points">
              <mxPoint x="600" y="180" />
              <mxPoint x="600" y="555" />
            </Array>
          </mxGeometry>
        </mxCell>
        <mxCell id="pTcl19t6WtHDqJ_NbqL0-11" value="否" style="edgeLabel;html=1;align=center;verticalAlign=middle;resizable=0;points=[];" vertex="1" connectable="0" parent="pTcl19t6WtHDqJ_NbqL0-10">
          <mxGeometry x="-0.3612" y="-3" relative="1" as="geometry">
            <mxPoint as="offset" />
          </mxGeometry>
        </mxCell>
        <mxCell id="pTcl19t6WtHDqJ_NbqL0-14" value="" style="edgeStyle=orthogonalEdgeStyle;rounded=0;orthogonalLoop=1;jettySize=auto;html=1;" edge="1" parent="1" source="pTcl19t6WtHDqJ_NbqL0-6" target="pTcl19t6WtHDqJ_NbqL0-13">
          <mxGeometry relative="1" as="geometry" />
        </mxCell>
        <mxCell id="pTcl19t6WtHDqJ_NbqL0-6" value="审批是否通过" style="strokeWidth=2;html=1;shape=mxgraph.flowchart.decision;whiteSpace=wrap;" vertex="1" parent="1">
          <mxGeometry x="400" y="130" width="100" height="100" as="geometry" />
        </mxCell>
        <mxCell id="pTcl19t6WtHDqJ_NbqL0-9" value="结束" style="strokeWidth=2;html=1;shape=mxgraph.flowchart.terminator;whiteSpace=wrap;" vertex="1" parent="1">
          <mxGeometry x="400" y="525" width="100" height="60" as="geometry" />
        </mxCell>
        <mxCell id="pTcl19t6WtHDqJ_NbqL0-15" style="edgeStyle=orthogonalEdgeStyle;rounded=0;orthogonalLoop=1;jettySize=auto;html=1;" edge="1" parent="1" source="pTcl19t6WtHDqJ_NbqL0-13">
          <mxGeometry relative="1" as="geometry">
            <mxPoint x="450" y="520" as="targetPoint" />
          </mxGeometry>
        </mxCell>
        <mxCell id="pTcl19t6WtHDqJ_NbqL0-13" value="多线程异步执行数据入库事务" style="verticalLabelPosition=bottom;verticalAlign=top;html=1;shape=mxgraph.flowchart.parallel_mode;pointerEvents=1" vertex="1" parent="1">
          <mxGeometry x="373" y="300" width="154" height="50" as="geometry" />
        </mxCell>
        <mxCell id="pTcl19t6WtHDqJ_NbqL0-19" value="" style="edgeStyle=orthogonalEdgeStyle;rounded=0;orthogonalLoop=1;jettySize=auto;html=1;" edge="1" parent="1" source="pTcl19t6WtHDqJ_NbqL0-16" target="pTcl19t6WtHDqJ_NbqL0-17">
          <mxGeometry relative="1" as="geometry" />
        </mxCell>
        <mxCell id="pTcl19t6WtHDqJ_NbqL0-16" value="开始" style="strokeWidth=2;html=1;shape=mxgraph.flowchart.start_1;whiteSpace=wrap;" vertex="1" parent="1">
          <mxGeometry x="90" y="680" width="100" height="60" as="geometry" />
        </mxCell>
        <mxCell id="pTcl19t6WtHDqJ_NbqL0-20" value="" style="edgeStyle=orthogonalEdgeStyle;rounded=0;orthogonalLoop=1;jettySize=auto;html=1;" edge="1" parent="1" source="pTcl19t6WtHDqJ_NbqL0-17" target="pTcl19t6WtHDqJ_NbqL0-18">
          <mxGeometry relative="1" as="geometry" />
        </mxCell>
        <mxCell id="pTcl19t6WtHDqJ_NbqL0-17" value="数据入库" style="rounded=1;whiteSpace=wrap;html=1;absoluteArcSize=1;arcSize=14;strokeWidth=2;" vertex="1" parent="1">
          <mxGeometry x="90" y="795" width="100" height="60" as="geometry" />
        </mxCell>
        <mxCell id="pTcl19t6WtHDqJ_NbqL0-22" value="" style="edgeStyle=orthogonalEdgeStyle;rounded=0;orthogonalLoop=1;jettySize=auto;html=1;" edge="1" parent="1" source="pTcl19t6WtHDqJ_NbqL0-18" target="pTcl19t6WtHDqJ_NbqL0-21">
          <mxGeometry relative="1" as="geometry" />
        </mxCell>
        <mxCell id="pTcl19t6WtHDqJ_NbqL0-24" value="" style="edgeStyle=orthogonalEdgeStyle;rounded=0;orthogonalLoop=1;jettySize=auto;html=1;" edge="1" parent="1" source="pTcl19t6WtHDqJ_NbqL0-18" target="pTcl19t6WtHDqJ_NbqL0-23">
          <mxGeometry relative="1" as="geometry" />
        </mxCell>
        <mxCell id="pTcl19t6WtHDqJ_NbqL0-18" value="入库成功否？" style="strokeWidth=2;html=1;shape=mxgraph.flowchart.decision;whiteSpace=wrap;" vertex="1" parent="1">
          <mxGeometry x="90" y="890" width="100" height="100" as="geometry" />
        </mxCell>
        <mxCell id="pTcl19t6WtHDqJ_NbqL0-26" value="" style="edgeStyle=orthogonalEdgeStyle;rounded=0;orthogonalLoop=1;jettySize=auto;html=1;" edge="1" parent="1" source="pTcl19t6WtHDqJ_NbqL0-21" target="pTcl19t6WtHDqJ_NbqL0-25">
          <mxGeometry relative="1" as="geometry" />
        </mxCell>
        <mxCell id="pTcl19t6WtHDqJ_NbqL0-21" value="修改入库单状态为成功" style="rounded=1;whiteSpace=wrap;html=1;absoluteArcSize=1;arcSize=14;strokeWidth=2;" vertex="1" parent="1">
          <mxGeometry x="90" y="1050" width="100" height="60" as="geometry" />
        </mxCell>
        <mxCell id="pTcl19t6WtHDqJ_NbqL0-27" style="edgeStyle=orthogonalEdgeStyle;rounded=0;orthogonalLoop=1;jettySize=auto;html=1;entryX=0.99;entryY=0.746;entryDx=0;entryDy=0;entryPerimeter=0;" edge="1" parent="1" source="pTcl19t6WtHDqJ_NbqL0-23" target="pTcl19t6WtHDqJ_NbqL0-25">
          <mxGeometry relative="1" as="geometry">
            <Array as="points">
              <mxPoint x="290" y="1215" />
            </Array>
          </mxGeometry>
        </mxCell>
        <mxCell id="pTcl19t6WtHDqJ_NbqL0-23" value="修改申请单状态为入库失败，并记录错误信息" style="rounded=1;whiteSpace=wrap;html=1;absoluteArcSize=1;arcSize=14;strokeWidth=2;" vertex="1" parent="1">
          <mxGeometry x="250" y="912.5" width="110" height="55" as="geometry" />
        </mxCell>
        <mxCell id="pTcl19t6WtHDqJ_NbqL0-25" value="结束" style="strokeWidth=2;html=1;shape=mxgraph.flowchart.terminator;whiteSpace=wrap;" vertex="1" parent="1">
          <mxGeometry x="90" y="1170" width="100" height="60" as="geometry" />
        </mxCell>
      </root>
    </mxGraphModel>
  </diagram>
</mxfile>
